{
  "asset": {
    "version": "2.0",
    "generator": "THREE.GLTFExporter"
  },
  "scenes": [
    {
      "name": "Scene",
      "nodes": [
        10
      ]
    }
  ],
  "scene": 0,
  "nodes": [
    {
      "matrix": [
        1,
        0,
        0,
        0,
        0,
        1,
        0,
        0,
        0,
        0,
        1,
        0,
        -3.1664319038391113,
        -6.224713325500488,
        -5.768850803375244,
        1
      ],
      "name": "land_92002",
      "extras": {
        "name": "land_92.002"
      },
      "mesh": 0
    },
    {
      "matrix": [
        1,
        0,
        0,
        0,
        0,
        1,
        0,
        0,
        0,
        0,
        1,
        0,
        -5.172445774078369,
        -6.228676795959473,
        -4.698404788970947,
        1
      ],
      "name": "land_92003",
      "extras": {
        "name": "land_92.003"
      },
      "mesh": 1
    },
    {
      "matrix": [
        1,
        0,
        0,
        0,
        0,
        1,
        0,
        0,
        0,
        0,
        1,
        0,
        -2.0330591201782227,
        -6.5271711349487305,
        -3.4257850646972656,
        1
      ],
      "name": "land_92004",
      "extras": {
        "name": "land_92.004"
      },
      "mesh": 2
    },
    {
      "matrix": [
        1,
        0,
        0,
        0,
        0,
        1,
        0,
        0,
        0,
        0,
        1,
        0,
        -2.367873430252075,
        -6.413588523864746,
        -2.7458388805389404,
        1
      ],
      "name": "land_92005",
      "extras": {
        "name": "land_92.005"
      },
      "mesh": 3
    },
    {
      "matrix": [
        1,
        0,
        0,
        0,
        0,
        1,
        0,
        0,
        0,
        0,
        1.42,
        0,
        -1.834925889968872,
        -9.872987747192383,
        -0.998,
        1
      ],
      "name": "land_92008",
      "extras": {
        "name": "land_92.008"
      },
      "mesh": 4
    },
    {
      "matrix": [
        1,
        0,
        0,
        0,
        0,
        1,
        0,
        0,
        0,
        0,
        1,
        0,
        -4.862378120422363,
        -6.425192832946777,
        -5.428567886352539,
        1
      ],
      "name": "land_92012",
      "extras": {
        "name": "land_92.012"
      },
      "mesh": 5
    },
    {
      "matrix": [
        1,
        0,
        0,
        0,
        0,
        1,
        0,
        0,
        0,
        0,
        1,
        0,
        -5.966841220855713,
        -3.6376953125,
        5.688018798828125,
        1
      ],
      "name": "land_92014",
      "extras": {
        "name": "land_92.014"
      },
      "mesh": 6
    },
    {
      "matrix": [
        1,
        0,
        0,
        0,
        0,
        1,
        0,
        0,
        0,
        0,
        1,
        0,
        1.9205729961395264,
        -6.199490547180176,
        -5.621120452880859,
        1
      ],
      "name": "land_92015",
      "extras": {
        "name": "land_92.015"
      },
      "mesh": 7
    },
    {
      "matrix": [
        1,
        0,
        0,
        0,
        0,
        1,
        0,
        0,
        0,
        0,
        1,
        0,
        3.204303741455078,
        -6.254912376403809,
        -6.196283340454102,
        1
      ],
      "name": "land_92016",
      "extras": {
        "name": "land_92.016"
      },
      "mesh": 8
    },
    {
      "matrix": [
        1,
        0,
        0,
        0,
        0,
        1,
        0,
        0,
        0,
        0,
        1,
        0,
        0,
        14.393010139465332,
        0,
        1
      ],
      "name": "land_92",
      "extras": {
        "name": "land_92"
      },
      "children": [
        0,
        1,
        2,
        3,
        4,
        5,
        6,
        7,
        8
      ]
    },
    {
      "name": "land_92.glb",
      "children": [
        9
      ]
    }
  ],
  "bufferViews": [
    {
      "buffer": 0,
      "byteOffset": 0,
      "byteLength": 2160,
      "target": 34962,
      "byteStride": 12
    },
    {
      "buffer": 0,
      "byteOffset": 2160,
      "byteLength": 2160,
      "target": 34962,
      "byteStride": 12
    },
    {
      "buffer": 0,
      "byteOffset": 4320,
      "byteLength": 1440,
      "target": 34962,
      "byteStride": 8
    },
    {
      "buffer": 0,
      "byteOffset": 5760,
      "byteLength": 360,
      "target": 34963
    },
    {
      "buffer": 0,
      "byteOffset": 6120,
      "byteLength": 2160,
      "target": 34962,
      "byteStride": 12
    },
    {
      "buffer": 0,
      "byteOffset": 8280,
      "byteLength": 2160,
      "target": 34962,
      "byteStride": 12
    },
    {
      "buffer": 0,
      "byteOffset": 10440,
      "byteLength": 1440,
      "target": 34962,
      "byteStride": 8
    },
    {
      "buffer": 0,
      "byteOffset": 11880,
      "byteLength": 360,
      "target": 34963
    },
    {
      "buffer": 0,
      "byteOffset": 12240,
      "byteLength": 2160,
      "target": 34962,
      "byteStride": 12
    },
    {
      "buffer": 0,
      "byteOffset": 14400,
      "byteLength": 2160,
      "target": 34962,
      "byteStride": 12
    },
    {
      "buffer": 0,
      "byteOffset": 16560,
      "byteLength": 1440,
      "target": 34962,
      "byteStride": 8
    },
    {
      "buffer": 0,
      "byteOffset": 18000,
      "byteLength": 360,
      "target": 34963
    },
    {
      "buffer": 0,
      "byteOffset": 18360,
      "byteLength": 3456,
      "target": 34962,
      "byteStride": 12
    },
    {
      "buffer": 0,
      "byteOffset": 21816,
      "byteLength": 3456,
      "target": 34962,
      "byteStride": 12
    },
    {
      "buffer": 0,
      "byteOffset": 25272,
      "byteLength": 2304,
      "target": 34962,
      "byteStride": 8
    },
    {
      "buffer": 0,
      "byteOffset": 27576,
      "byteLength": 576,
      "target": 34963
    },
    {
      "buffer": 0,
      "byteOffset": 28152,
      "byteLength": 61416,
      "target": 34962,
      "byteStride": 12
    },
    {
      "buffer": 0,
      "byteOffset": 89568,
      "byteLength": 61416,
      "target": 34962,
      "byteStride": 12
    },
    {
      "buffer": 0,
      "byteOffset": 150984,
      "byteLength": 40944,
      "target": 34962,
      "byteStride": 8
    },
    {
      "buffer": 0,
      "byteOffset": 191928,
      "byteLength": 10284,
      "target": 34963
    },
    {
      "buffer": 0,
      "byteOffset": 202212,
      "byteLength": 40704,
      "target": 34962,
      "byteStride": 12
    },
    {
      "buffer": 0,
      "byteOffset": 242916,
      "byteLength": 40704,
      "target": 34962,
      "byteStride": 12
    },
    {
      "buffer": 0,
      "byteOffset": 283620,
      "byteLength": 27136,
      "target": 34962,
      "byteStride": 8
    },
    {
      "buffer": 0,
      "byteOffset": 310756,
      "byteLength": 6900,
      "target": 34963
    },
    {
      "buffer": 0,
      "byteOffset": 317656,
      "byteLength": 2976,
      "target": 34962,
      "byteStride": 12
    },
    {
      "buffer": 0,
      "byteOffset": 320632,
      "byteLength": 2976,
      "target": 34962,
      "byteStride": 12
    },
    {
      "buffer": 0,
      "byteOffset": 323608,
      "byteLength": 1984,
      "target": 34962,
      "byteStride": 8
    },
    {
      "buffer": 0,
      "byteOffset": 325592,
      "byteLength": 684,
      "target": 34963
    },
    {
      "buffer": 0,
      "byteOffset": 326276,
      "byteLength": 2160,
      "target": 34962,
      "byteStride": 12
    },
    {
      "buffer": 0,
      "byteOffset": 328436,
      "byteLength": 2160,
      "target": 34962,
      "byteStride": 12
    },
    {
      "buffer": 0,
      "byteOffset": 330596,
      "byteLength": 1440,
      "target": 34962,
      "byteStride": 8
    },
    {
      "buffer": 0,
      "byteOffset": 332036,
      "byteLength": 360,
      "target": 34963
    },
    {
      "buffer": 0,
      "byteOffset": 332396,
      "byteLength": 2160,
      "target": 34962,
      "byteStride": 12
    },
    {
      "buffer": 0,
      "byteOffset": 334556,
      "byteLength": 2160,
      "target": 34962,
      "byteStride": 12
    },
    {
      "buffer": 0,
      "byteOffset": 336716,
      "byteLength": 1440,
      "target": 34962,
      "byteStride": 8
    },
    {
      "buffer": 0,
      "byteOffset": 338156,
      "byteLength": 360,
      "target": 34963
    }
  ],
  "buffers": [
    {
      "byteLength": 338516,
      "uri": "data:application/octet-stream;base64,"
    }
  ],
  "accessors": [
    {
      "bufferView": 0,
      "componentType": 5126,
      "count": 180,
      "max": [
        0.8969882130622864,
        0.2260856330394745,
        0.697219729423523
      ],
      "min": [
        -0.8238223195075989,
        -0.345086008310318,
        -0.7655948996543884
      ],
      "type": "VEC3"
    },
    {
      "bufferView": 1,
      "componentType": 5126,
      "count": 180,
      "max": [
        0.9998170137405396,
        0.9994102716445923,
        0.9973792433738708
      ],
      "min": [
        -0.9829391837120056,
        -0.9988599419593811,
        -0.9185891151428223
      ],
      "type": "VEC3"
    },
    {
      "bufferView": 2,
      "componentType": 5126,
      "count": 180,
      "max": [
        0.8769745826721191,
        0.5312613248825073
      ],
      "min": [
        0.8769241571426392,
        0.5311926007270813
      ],
      "type": "VEC2"
    },
    {
      "bufferView": 3,
      "componentType": 5123,
      "count": 180,
      "max": [
        179
      ],
      "min": [
        0
      ],
      "type": "SCALAR"
    },
    {
      "bufferView": 4,
      "componentType": 5126,
      "count": 180,
      "max": [
        0.6661838889122009,
        0.18140511214733124,
        0.6884151101112366
      ],
      "min": [
        -0.6597444415092468,
        -0.2768869698047638,
        -0.6734618544578552
      ],
      "type": "VEC3"
    },
    {
      "bufferView": 5,
      "componentType": 5126,
      "count": 180,
      "max": [
        0.9892383217811584,
        0.9994097352027893,
        0.9115959405899048
      ],
      "min": [
        -0.9900733828544617,
        -0.9988600015640259,
        -0.8821186423301697
      ],
      "type": "VEC3"
    },
    {
      "bufferView": 6,
      "componentType": 5126,
      "count": 180,
      "max": [
        0.8769745826721191,
        0.5312613248825073
      ],
      "min": [
        0.8769241571426392,
        0.5311926007270813
      ],
      "type": "VEC2"
    },
    {
      "bufferView": 7,
      "componentType": 5123,
      "count": 180,
      "max": [
        179
      ],
      "min": [
        0
      ],
      "type": "SCALAR"
    },
    {
      "bufferView": 8,
      "componentType": 5126,
      "count": 180,
      "max": [
        0.5465242266654968,
        0.2162752002477646,
        0.5051271915435791
      ],
      "min": [
        -0.5859986543655396,
        -0.4041452407836914,
        -0.4630132019519806
      ],
      "type": "VEC3"
    },
    {
      "bufferView": 9,
      "componentType": 5126,
      "count": 180,
      "max": [
        0.997279942035675,
        0.9996376633644104,
        0.9452967047691345
      ],
      "min": [
        -0.9960507154464722,
        -0.9997254610061646,
        -0.9992955923080444
      ],
      "type": "VEC3"
    },
    {
      "bufferView": 10,
      "componentType": 5126,
      "count": 180,
      "max": [
        0.8769745826721191,
        0.5312613248825073
      ],
      "min": [
        0.8769241571426392,
        0.5311926007270813
      ],
      "type": "VEC2"
    },
    {
      "bufferView": 11,
      "componentType": 5123,
      "count": 180,
      "max": [
        179
      ],
      "min": [
        0
      ],
      "type": "SCALAR"
    },
    {
      "bufferView": 12,
      "componentType": 5126,
      "count": 288,
      "max": [
        0.5464483499526978,
        0.7212247848510742,
        0.5747066736221313
      ],
      "min": [
        -0.5516969561576843,
        -0.8268651962280273,
        -0.5980833172798157
      ],
      "type": "VEC3"
    },
    {
      "bufferView": 13,
      "componentType": 5126,
      "count": 288,
      "max": [
        0.9974339008331299,
        0.998721182346344,
        0.9814168810844421
      ],
      "min": [
        -0.9954795837402344,
        -0.997093915939331,
        -0.9984753727912903
      ],
      "type": "VEC3"
    },
    {
      "bufferView": 14,
      "componentType": 5126,
      "count": 288,
      "max": [
        0.8652295470237732,
        0.5906188488006592
      ],
      "min": [
        0.8652295470237732,
        0.5886145830154419
      ],
      "type": "VEC2"
    },
    {
      "bufferView": 15,
      "componentType": 5123,
      "count": 288,
      "max": [
        287
      ],
      "min": [
        0
      ],
      "type": "SCALAR"
    },
    {
      "bufferView": 16,
      "componentType": 5126,
      "count": 5118,
      "max": [
        9.334939002990723,
        3.6575496196746826,
        5.339778900146484
      ],
      "min": [
        -5.665067672729492,
        -7.534441947937012,
        -5.101586818695068
      ],
      "type": "VEC3"
    },
    {
      "bufferView": 17,
      "componentType": 5126,
      "count": 5118,
      "max": [
        1,
        0.9999967813491821,
        0.9997459053993225
      ],
      "min": [
        -1,
        -0.9999600648880005,
        -1
      ],
      "type": "VEC3"
    },
    {
      "bufferView": 18,
      "componentType": 5126,
      "count": 5118,
      "max": [
        0.642593502998352,
        0.8424645662307739
      ],
      "min": [
        0.5506125688552856,
        0.564226508140564
      ],
      "type": "VEC2"
    },
    {
      "bufferView": 19,
      "componentType": 5123,
      "count": 5142,
      "max": [
        5117
      ],
      "min": [
        0
      ],
      "type": "SCALAR"
    },
    {
      "bufferView": 20,
      "componentType": 5126,
      "count": 3392,
      "max": [
        2.3712451457977295,
        2.9883220195770264,
        2.6892330646514893
      ],
      "min": [
        -1.9959335327148438,
        -0.019860273227095604,
        -1.2052465677261353
      ],
      "type": "VEC3"
    },
    {
      "bufferView": 21,
      "componentType": 5126,
      "count": 3392,
      "max": [
        0.9962554574012756,
        0.999411940574646,
        0.9982405304908752
      ],
      "min": [
        -0.9988219141960144,
        -0.9999760389328003,
        -0.999790608882904
      ],
      "type": "VEC3"
    },
    {
      "bufferView": 22,
      "componentType": 5126,
      "count": 3392,
      "max": [
        0.7909783720970154,
        0.6081727147102356
      ],
      "min": [
        0.4908284544944763,
        0.5755298137664795
      ],
      "type": "VEC2"
    },
    {
      "bufferView": 23,
      "componentType": 5123,
      "count": 3450,
      "max": [
        3391
      ],
      "min": [
        0
      ],
      "type": "SCALAR"
    },
    {
      "bufferView": 24,
      "componentType": 5126,
      "count": 248,
      "max": [
        0.40874218940734863,
        0.23443463444709778,
        0.3002499043941498
      ],
      "min": [
        -0.4579731822013855,
        -0.22443591058254242,
        -0.37609168887138367
      ],
      "type": "VEC3"
    },
    {
      "bufferView": 25,
      "componentType": 5126,
      "count": 248,
      "max": [
        0.8794471621513367,
        0.9750693440437317,
        0.9966569542884827
      ],
      "min": [
        -0.9480928778648376,
        -0.9753183126449585,
        -0.9938033819198608
      ],
      "type": "VEC3"
    },
    {
      "bufferView": 26,
      "componentType": 5126,
      "count": 248,
      "max": [
        0.8709678649902344,
        0.7933027744293213
      ],
      "min": [
        0.8618919253349304,
        0.7809146642684937
      ],
      "type": "VEC2"
    },
    {
      "bufferView": 27,
      "componentType": 5123,
      "count": 342,
      "max": [
        247
      ],
      "min": [
        0
      ],
      "type": "SCALAR"
    },
    {
      "bufferView": 28,
      "componentType": 5126,
      "count": 180,
      "max": [
        0.8863210678100586,
        0.21719160676002502,
        0.7188076376914978
      ],
      "min": [
        -0.826819658279419,
        -0.40366655588150024,
        -0.7527623176574707
      ],
      "type": "VEC3"
    },
    {
      "bufferView": 29,
      "componentType": 5126,
      "count": 180,
      "max": [
        0.9962777495384216,
        0.9995051026344299,
        0.9975248575210571
      ],
      "min": [
        -0.9928961992263794,
        -0.9985257983207703,
        -0.9558068513870239
      ],
      "type": "VEC3"
    },
    {
      "bufferView": 30,
      "componentType": 5126,
      "count": 180,
      "max": [
        0.8769745826721191,
        0.5312613248825073
      ],
      "min": [
        0.8769241571426392,
        0.5311926007270813
      ],
      "type": "VEC2"
    },
    {
      "bufferView": 31,
      "componentType": 5123,
      "count": 180,
      "max": [
        179
      ],
      "min": [
        0
      ],
      "type": "SCALAR"
    },
    {
      "bufferView": 32,
      "componentType": 5126,
      "count": 180,
      "max": [
        0.5214101672172546,
        0.15794406831264496,
        0.4614162743091583
      ],
      "min": [
        -0.6317355036735535,
        -0.21607506275177002,
        -0.45644885301589966
      ],
      "type": "VEC3"
    },
    {
      "bufferView": 33,
      "componentType": 5126,
      "count": 180,
      "max": [
        0.9875953197479248,
        0.9965552091598511,
        0.9748753905296326
      ],
      "min": [
        -0.9742069244384766,
        -0.9994046688079834,
        -0.9800878167152405
      ],
      "type": "VEC3"
    },
    {
      "bufferView": 34,
      "componentType": 5126,
      "count": 180,
      "max": [
        0.8769745826721191,
        0.5312613248825073
      ],
      "min": [
        0.8769241571426392,
        0.5311926007270813
      ],
      "type": "VEC2"
    },
    {
      "bufferView": 35,
      "componentType": 5123,
      "count": 180,
      "max": [
        179
      ],
      "min": [
        0
      ],
      "type": "SCALAR"
    }
  ],
  "materials": [
    {
      "pbrMetallicRoughness": {
        "metallicFactor": 0,
        "roughnessFactor": 0.20545455813407898,
        "baseColorTexture": {
          "index": 0
        }
      },
      "doubleSided": true,
      "name": "color"
    }
  ],
  "textures": [
    {
      "sampler": 0,
      "source": 0,
      "name": "textures"
    }
  ],
  "samplers": [
    {
      "magFilter": 9729,
      "minFilter": 9986,
      "wrapS": 10497,
      "wrapT": 10497
    }
  ],
  "images": [
    {
      "mimeType": "image/png",
      "uri": "data:image/png;base64,"
    }
  ],
  "meshes": [
    {
      "primitives": [
        {
          "mode": 4,
          "attributes": {
            "POSITION": 0,
            "NORMAL": 1,
            "TEXCOORD_0": 2
          },
          "indices": 3,
          "material": 0
        }
      ]
    },
    {
      "primitives": [
        {
          "mode": 4,
          "attributes": {
            "POSITION": 4,
            "NORMAL": 5,
            "TEXCOORD_0": 6
          },
          "indices": 7,
          "material": 0
        }
      ]
    },
    {
      "primitives": [
        {
          "mode": 4,
          "attributes": {
            "POSITION": 8,
            "NORMAL": 9,
            "TEXCOORD_0": 10
          },
          "indices": 11,
          "material": 0
        }
      ]
    },
    {
      "primitives": [
        {
          "mode": 4,
          "attributes": {
            "POSITION": 12,
            "NORMAL": 13,
            "TEXCOORD_0": 14
          },
          "indices": 15,
          "material": 0
        }
      ]
    },
    {
      "primitives": [
        {
          "mode": 4,
          "attributes": {
            "POSITION": 16,
            "NORMAL": 17,
            "TEXCOORD_0": 18
          },
          "indices": 19,
          "material": 0
        }
      ]
    },
    {
      "primitives": [
        {
          "mode": 4,
          "attributes": {
            "POSITION": 20,
            "NORMAL": 21,
            "TEXCOORD_0": 22
          },
          "indices": 23,
          "material": 0
        }
      ]
    },
    {
      "primitives": [
        {
          "mode": 4,
          "attributes": {
            "POSITION": 24,
            "NORMAL": 25,
            "TEXCOORD_0": 26
          },
          "indices": 27,
          "material": 0
        }
      ]
    },
    {
      "primitives": [
        {
          "mode": 4,
          "attributes": {
            "POSITION": 28,
            "NORMAL": 29,
            "TEXCOORD_0": 30
          },
          "indices": 31,
          "material": 0
        }
      ]
    },
    {
      "primitives": [
        {
          "mode": 4,
          "attributes": {
            "POSITION": 32,
            "NORMAL": 33,
            "TEXCOORD_0": 34
          },
          "indices": 35,
          "material": 0
        }
      ]
    }
  ]
}