{
  "asset": {
    "version": "2.0",
    "generator": "THREE.GLTFExporter"
  },
  "scenes": [
    {
      "name": "Scene",
      "nodes": [
        5
      ]
    }
  ],
  "scene": 0,
  "nodes": [
    {
      "matrix": [
        1,
        0,
        0,
        0,
        0,
        1,
        0,
        0,
        0,
        0,
        1,
        0,
        0.12274503707885742,
        -3.233203887939453,
        -5.855311393737793,
        1
      ],
      "name": "land_73008",
      "extras": {
        "name": "land_73.008"
      },
      "mesh": 0
    },
    {
      "name": "Mesh5423",
      "mesh": 1
    },
    {
      "name": "Mesh5423_1",
      "mesh": 2
    },
    {
      "matrix": [
        1,
        0,
        0,
        0,
        0,
        1,
        0,
        0,
        0,
        0,
        1,
        0,
        0.12274503707885742,
        -3.233203887939453,
        -5.855311393737793,
        1
      ],
      "name": "land_73006",
      "extras": {
        "name": "land_73.006"
      },
      "children": [
        1,
        2
      ]
    },
    {
      "matrix": [
        1,
        0,
        0,
        0,
        0,
        1,
        0,
        0,
        0,
        0,
        1,
        0,
        0,
        15,
        0,
        1
      ],
      "name": "land_73",
      "extras": {
        "name": "land_73"
      },
      "children": [
        0,
        3
      ]
    },
    {
      "name": "land_73.glb",
      "children": [
        4
      ]
    }
  ],
  "bufferViews": [
    {
      "buffer": 0,
      "byteOffset": 0,
      "byteLength": 38400,
      "target": 34962,
      "byteStride": 12
    },
    {
      "buffer": 0,
      "byteOffset": 38400,
      "byteLength": 38400,
      "target": 34962,
      "byteStride": 12
    },
    {
      "buffer": 0,
      "byteOffset": 76800,
      "byteLength": 25600,
      "target": 34962,
      "byteStride": 8
    },
    {
      "buffer": 0,
      "byteOffset": 102400,
      "byteLength": 9600,
      "target": 34963
    },
    {
      "buffer": 0,
      "byteOffset": 112000,
      "byteLength": 11208,
      "target": 34962,
      "byteStride": 12
    },
    {
      "buffer": 0,
      "byteOffset": 123208,
      "byteLength": 11208,
      "target": 34962,
      "byteStride": 12
    },
    {
      "buffer": 0,
      "byteOffset": 134416,
      "byteLength": 7472,
      "target": 34962,
      "byteStride": 8
    },
    {
      "buffer": 0,
      "byteOffset": 141888,
      "byteLength": 2940,
      "target": 34963
    },
    {
      "buffer": 0,
      "byteOffset": 144828,
      "byteLength": 5400,
      "target": 34962,
      "byteStride": 12
    },
    {
      "buffer": 0,
      "byteOffset": 150228,
      "byteLength": 5400,
      "target": 34962,
      "byteStride": 12
    },
    {
      "buffer": 0,
      "byteOffset": 155628,
      "byteLength": 3600,
      "target": 34962,
      "byteStride": 8
    },
    {
      "buffer": 0,
      "byteOffset": 159228,
      "byteLength": 900,
      "target": 34963
    }
  ],
  "buffers": [
    {
      "byteLength": 160128,
      "uri": "data:application/octet-stream;base64,"
    }
  ],
  "accessors": [
    {
      "bufferView": 0,
      "componentType": 5126,
      "count": 3200,
      "max": [
        3.955524444580078,
        4.627823829650879,
        3.955169677734375
      ],
      "min": [
        -3.954967498779297,
        -3.052946090698242,
        -3.955322265625
      ],
      "type": "VEC3"
    },
    {
      "bufferView": 1,
      "componentType": 5126,
      "count": 3200,
      "max": [
        0.9998670220375061,
        0.9980647563934326,
        0.9998670816421509
      ],
      "min": [
        -0.9998670816421509,
        -0.9978554844856262,
        -0.9998669624328613
      ],
      "type": "VEC3"
    },
    {
      "bufferView": 2,
      "componentType": 5126,
      "count": 3200,
      "max": [
        0.8861223459243774,
        0.7797515392303467
      ],
      "min": [
        0.03152579069137573,
        0.4939839839935303
      ],
      "type": "VEC2"
    },
    {
      "bufferView": 3,
      "componentType": 5123,
      "count": 4800,
      "max": [
        3199
      ],
      "min": [
        0
      ],
      "type": "SCALAR"
    },
    {
      "bufferView": 4,
      "componentType": 5126,
      "count": 934,
      "max": [
        1.1796379089355469,
        -2.997420310974121,
        1.1792755126953125
      ],
      "min": [
        -1.1790771484375,
        -6.423292636871338,
        -1.1794357299804688
      ],
      "type": "VEC3"
    },
    {
      "bufferView": 5,
      "componentType": 5126,
      "count": 934,
      "max": [
        1,
        1,
        1
      ],
      "min": [
        -1,
        -1,
        -1
      ],
      "type": "VEC3"
    },
    {
      "bufferView": 6,
      "componentType": 5126,
      "count": 934,
      "max": [
        0.8775773048400879,
        0.7717994451522827
      ],
      "min": [
        0.05887848138809204,
        0.20643150806427002
      ],
      "type": "VEC2"
    },
    {
      "bufferView": 7,
      "componentType": 5123,
      "count": 1470,
      "max": [
        933
      ],
      "min": [
        0
      ],
      "type": "SCALAR"
    },
    {
      "bufferView": 8,
      "componentType": 5126,
      "count": 450,
      "max": [
        0.17332787811756134,
        -3.5741994380950928,
        0.0943928062915802
      ],
      "min": [
        -0.1945589780807495,
        -3.808870315551758,
        -0.05342511832714081
      ],
      "type": "VEC3"
    },
    {
      "bufferView": 9,
      "componentType": 5126,
      "count": 450,
      "max": [
        0.9912880063056946,
        0.9710580110549927,
        0.983938455581665
      ],
      "min": [
        -0.9868887662887573,
        -0.4848273694515228,
        -0.9976368546485901
      ],
      "type": "VEC3"
    },
    {
      "bufferView": 10,
      "componentType": 5126,
      "count": 450,
      "max": [
        0.5990521907806396,
        0.22609031200408936
      ],
      "min": [
        0.593021035194397,
        0.2208176851272583
      ],
      "type": "VEC2"
    },
    {
      "bufferView": 11,
      "componentType": 5123,
      "count": 450,
      "max": [
        449
      ],
      "min": [
        0
      ],
      "type": "SCALAR"
    }
  ],
  "materials": [
    {
      "pbrMetallicRoughness": {
        "metallicFactor": 0,
        "roughnessFactor": 0.20545455813407898,
        "baseColorTexture": {
          "index": 0
        }
      },
      "emissiveFactor": [
        0.043137254901960784,
        0.0392156862745098,
        0.01568627450980392
      ],
      "doubleSided": true,
      "name": "color"
    },
    {
      "pbrMetallicRoughness": {
        "metallicFactor": 1,
        "roughnessFactor": 1
      },
      "emissiveFactor": [
        1,
        1,
        1
      ],
      "emissiveTexture": {
        "index": 0
      },
      "doubleSided": true,
      "name": "emission"
    }
  ],
  "textures": [
    {
      "sampler": 0,
      "source": 0,
      "name": "textures"
    }
  ],
  "samplers": [
    {
      "magFilter": 9729,
      "minFilter": 9986,
      "wrapS": 10497,
      "wrapT": 10497
    }
  ],
  "images": [
    {
      "mimeType": "image/png",
      "uri": "data:image/png;base64,"
    }
  ],
  "meshes": [
    {
      "primitives": [
        {
          "mode": 4,
          "attributes": {
            "POSITION": 0,
            "NORMAL": 1,
            "TEXCOORD_0": 2
          },
          "indices": 3,
          "material": 0
        }
      ]
    },
    {
      "primitives": [
        {
          "mode": 4,
          "attributes": {
            "POSITION": 4,
            "NORMAL": 5,
            "TEXCOORD_0": 6
          },
          "indices": 7,
          "material": 0
        }
      ]
    },
    {
      "primitives": [
        {
          "mode": 4,
          "attributes": {
            "POSITION": 8,
            "NORMAL": 9,
            "TEXCOORD_0": 10
          },
          "indices": 11,
          "material": 1
        }
      ]
    }
  ]
}